<?xml version="1.0" encoding="UTF-8" standalone="no"?>
<svg width="31px" height="93px" viewBox="0 0 31 93" version="1.1" id="Layer_1" xmlns="http://www.w3.org/2000/svg" xmlns:xlink="http://www.w3.org/1999/xlink">
<g>
  <g transform="translate(0.000000, 0.000000)">
    <g>
      <g>
        <circle fill="none" stroke="#6EC3E2" stroke-width="2" stroke-miterlimit="10" cx="15.5" cy="15.5" r="13.2"/>
      </g>
    </g>
    <g>
      <g>
        <g>
          <path fill="#6EC3E2" d="M14.2,9.4c0.3,0,0.6,0.1,0.8,0.3l5.3,5.3c0.4,0.4,0.4,1.1,0,1.6l-5.3,5.3c-0.4,0.4-1.1,0.4-1.6,0
            c-0.4-0.4-0.4-1.1,0-1.6l4.5-4.5l-4.5-4.5c-0.4-0.4-0.4-1.1,0-1.6C13.6,9.5,13.9,9.4,14.2,9.4z"/>
        </g>
      </g>
    </g>
  </g>
  <g transform="translate(0.000000, 31.000000)">
    <g>
      <g>
        <circle fill="none" stroke="#48B4DB" stroke-width="2" stroke-miterlimit="10" cx="15.5" cy="15.5" r="13.2"/>
      </g>
    </g>
    <g>
      <g>
        <g>
          <path fill="#48B4DB" d="M14.2,9.4c0.3,0,0.6,0.1,0.8,0.3l5.3,5.3c0.4,0.4,0.4,1.1,0,1.6l-5.3,5.3c-0.4,0.4-1.1,0.4-1.6,0
            c-0.4-0.4-0.4-1.1,0-1.6l4.5-4.5l-4.5-4.5c-0.4-0.4-0.4-1.1,0-1.6C13.6,9.5,13.9,9.4,14.2,9.4z"/>
        </g>
      </g>
    </g>
  </g>
  <g transform="translate(0.000000, 62.000000)">
    <g>
      <g>
        <circle fill="none" stroke="#29A4D1" stroke-width="2" stroke-miterlimit="10" cx="15.5" cy="15.5" r="13.2"/>
      </g>
    </g>
    <g>
      <g>
        <g>
          <path fill="#29A4D1" d="M14.2,9.4c0.3,0,0.6,0.1,0.8,0.3l5.3,5.3c0.4,0.4,0.4,1.1,0,1.6l-5.3,5.3c-0.4,0.4-1.1,0.4-1.6,0
            c-0.4-0.4-0.4-1.1,0-1.6l4.5-4.5l-4.5-4.5c-0.4-0.4-0.4-1.1,0-1.6C13.6,9.5,13.9,9.4,14.2,9.4z"/>
        </g>
      </g>
    </g>
  </g>
</g>
</svg>
