
<svg xmlns="http://www.w3.org/2000/svg" version="1.1" xmlns:xlink="http://www.w3.org/1999/xlink" preserveAspectRatio="none" x="0px" y="0px" width="160px" height="320px" viewBox="0 0 160 320">
<defs>
<g id="_______5_0_Layer0_0_FILL">
<path fill="#776A4D" stroke="none" d="
M 491.3 212.05
L 491.3 217 501.85 230 511.8 217 511.8 212.05
Q 501.716796875 208.1298828125 491.3 212.05 Z"/>
</g>

<g id="_______5_0_Layer0_1_FILL">
<path fill="#AA7957" stroke="none" d="
M 3688.2 1705.7
L 3685.95 1733.05
Q 3683.75 1767.15 3684 1800.9 3684.75 1908.9 3709.75 1973.2
L 3706.15 1999.25
Q 3702.25 2031.65 3700.8 2063.45 3696.2 2165.1 3717.8 2222.15
L 3717.75 2226.1
Q 3717.5 2231.4 3716.2 2238.25 3712.05 2260.1 3699.35 2289
L 3783.25 2289
Q 3776.4 2278.1 3769.75 2264.25 3756.45 2236.6 3757.3 2222.15 3758.7 2198.95 3770.4 1969.9
L 3780.2 1705.75 3698.5 1654.1 3688.2 1705.7 Z"/>
</g>

<g id="_______5_0_Layer0_2_FILL">
<path fill="#AA7957" stroke="none" d="
M 3677.95 1551.85
Q 3668.9 1553.95 3658.25 1559.15 3637 1569.6 3629.15 1585.05 3618.05 1607 3612.4 1635.8 3609.8 1649.1 3608.5 1665.25 3607.55 1677 3607.05 1694.85 3606.1 1728.5 3606.75 1762.15 3606.75 1762.95 3620.7 1756.1 3636.55 1748.3 3642.1 1747.8 3646.95 1728.6 3657.25 1697.25 3668.35 1663.5 3672.05 1649.85 3679.15 1623.85 3680.85 1602.45 3682.9 1576.7 3677.95 1551.85 Z"/>
</g>

<g id="_______5_0_Layer0_3_FILL">
<path fill="#8E6447" stroke="none" d="
M 3652.3 1843.8
Q 3652.6 1842.7 3652 1840.5
L 3631.5 1767.35
Q 3618.7 1785.15 3615.55 1806.45 3612.4 1827.75 3619.55 1847.4
L 3621.25 1845.2
Q 3623.75 1849.3 3625.55 1851.25 3628.3 1854.4 3631.6 1855.65 3635.4 1857.15 3639.6 1855.5 3643.95 1853.8 3644.15 1850.4 3641.45 1846.8 3640.6 1842.35 3639.7 1838 3640.75 1833.7 3640.15 1837.3 3640.3 1839.4 3640.5 1842.55 3642.15 1844.55 3644.05 1846.85 3647.85 1846.65 3651.65 1846.5 3652.3 1843.8 Z"/>
</g>

<g id="_______5_0_Layer0_4_FILL">
<path fill="#AA7957" stroke="none" d="
M 3642.4 1751.4
Q 3628.5 1734.95 3619.2 1740.3 3607.65 1747 3604.6 1787.25 3603.65 1799.45 3605.65 1813.6 3607.2 1824.8 3611 1839.65 3613.1 1848 3616.85 1853.1 3621.75 1859.75 3629 1860.1 3631.75 1856.65 3631 1851.35 3630.6 1848.4 3628.25 1842.05 3623.75 1830 3622.8 1817.15 3621.85 1804.3 3624.6 1791.7 3625.65 1786.75 3627.95 1784.65 3632.4 1780.6 3639.5 1783.8 3645.7 1786.55 3649.75 1792.35 3660.6 1808.05 3670.4 1804.55 3672.45 1803.8 3663.15 1784.7 3653.05 1764 3642.4 1751.4 Z"/>
</g>

<g id="_______5_0_Layer0_5_FILL">
<path fill="#AA7957" stroke="none" d="
M 3918.85 1559.15
Q 3913.6 1555.9 3908.1 1553.55
L 3903.65 1551.85
Q 3894.55 1597.4 3905.05 1649.85 3908.65 1668 3916.75 1697.25 3928.1 1738.35 3930.5 1747.8 3936.05 1748.3 3951.9 1756.1 3965.85 1762.95 3965.85 1762.15 3966.5 1729.05 3965.6 1694.85 3965.1 1677.2 3964.15 1665.25 3962.85 1649.15 3960.25 1635.8 3954.65 1607.15 3943.45 1585.05 3935.6 1569.6 3918.85 1559.15 Z"/>
</g>

<g id="_______5_0_Layer0_6_FILL">
<path fill="#AA7957" stroke="none" d="
M 523.25 282.25
L 503.3 295.9 510.75 365.55
Q 518.55 425.9 519.35 432.05 519.9 435.85 516.95 443.15 515.45 446.8 518.9 449.65
L 536.05 449.65
Q 569.8681640625 451.6958984375 549.95 443.05 530.04375 434.4513671875 529.9 433.1
L 529.75 432.05
Q 534.3 417 531 390.2 529.95 381.8 528.3 373.25
L 526.85 366.4
Q 532.1 349.45 530.1 320.95 529.45 312.05 528.15 303.1
L 527 295.85 523.25 282.25 Z"/>
</g>

<g id="_______5_0_Layer0_7_MEMBER_0_FILL">
<path fill="#AA7957" stroke="none" d="
M 2881.9 2036.1
Q 2855.1 2048.35 2845.95 2071.65 2839.3 2088.7 2841.3 2115.95 2841.65 2120.85 2843.5 2137.55 2844.85 2150.1 2844.85 2156.75 2844.85 2185.95 2869.3 2194.9 2881.5 2199.4 2893.7 2198.05
L 2949.45 2245.9
Q 2954.5 2250.1 2971.55 2251.55 2986.9 2252.85 2998.6 2251.2 3007.3 2250 3010.65 2223.9 3011.7 2215.75 3012.05 2206.1
L 3012.25 2198.05
Q 3017.1 2172.25 3014.9 2141 3014.2 2131.25 3012.9 2122.05
L 3011.7 2114.85
Q 3012.5 2102.55 3012.15 2076
L 3011.7 2051.95
Q 3003.65 2030.6 2987.1 2023.95 2981.95 2021.85 2976.5 2021.5
L 2972.15 2021.55
Q 2913.75 2021.55 2881.9 2036.1 Z"/>
</g>

<g id="_______5_0_Layer0_7_MEMBER_1_FILL">
<path fill="#7F573C" stroke="none" d="
M 3011.75 2210.55
L 3011.75 2205.1
Q 3007.8 2205.2 3002.25 2204.55 2991.2 2203.2 2983.15 2199.25
L 2986.4 2194.25
Q 2983.2 2194.55 2980.75 2196.75 2975.95 2201.15 2979.9 2210.55
L 2982.05 2204.75 2991.05 2207.65
Q 3002 2210.55 3011.75 2210.55 Z"/>
</g>

<g id="_______5_0_Layer0_7_MEMBER_2_FILL">
<path fill="#AA7957" stroke="none" d="
M 500.85 241.4
L 521.45 220.2 508.3 215.15 508.3 203.45 493.65 195.65 492.8 215 482.9 219.5 500.85 241.4 Z"/>
</g>

<g id="_______5_0_Layer0_7_MEMBER_3_FILL">
<path fill="#33201A" stroke="none" d="
M 2915.25 2017.1
Q 2847.3 2013.75 2841.65 2022.15 2836.05 2030.55 2822.2 2058.75 2815.25 2072.9 2809.45 2085.3
L 2808.9 2093.15
Q 2808.4 2103.05 2808.65 2113.2 2809.4 2145.65 2817.15 2168.35 2822.65 2184.55 2844.35 2197.7 2851.2 2201.85 2863.75 2208 2878 2215.05 2882.7 2217.7 2896.35 2126.15 2916.75 2035.95
L 2982.05 2022.15
Q 2949.2 2018.8 2915.25 2017.1 Z"/>
</g>

<g id="_______5_0_Layer0_7_MEMBER_4_FILL">
<path fill="#33201A" stroke="none" d="
M 2907.85 1983.05
Q 2889.95 1984.25 2874.05 1989.3 2838.95 2000.55 2822.4 2034.3 2812 2055.55 2809.45 2085.3
L 2878.6 2125.15
Q 2881.4 2119.5 2888.9 2119.85 2896.25 2120.2 2900.2 2125.55 2905.05 2132.2 2906.25 2134.95 2908.25 2139.75 2906.7 2145.35
L 2928.55 2144.85 2927.6 2079.7
Q 2927.45 2069.75 2928.25 2064.3 2929.5 2055.85 2933.5 2050.35 2937.85 2044.45 2945.55 2041.3 2952.45 2038.45 2960.75 2038.25 2966.75 2038.15 2978.95 2039.05 2989.7 2039.35 2996.35 2036.25 3007.8 2030.95 3014.55 2014.25 3016.5 2009.3 3019.6 2003.95 3021.25 2001.05 3020.55 2000.6 3020.1 2000.35 3014.3 1999.95 3006.5 1999.5 2997.8 1997.85 2994.85 1997.3 2987.95 1994.65 2974.5 1989.55 2974.25 1989.5 2954.9 1982.5 2942.5 1982.55 2914.7 1982.6 2907.85 1983.05 Z"/>
</g>

<g id="_______5_0_Layer0_7_MEMBER_5_FILL">
<path fill="#281814" stroke="none" d="
M 3018.65 2000.2
Q 3018.1 2008 3010.55 2016.7 2995.5 2034 2960.75 2038.25
L 3011.7 2052.7
Q 3021.8 2044.2 3021.25 2021.35 3021.05 2014.25 3019.85 2006.5
L 3018.65 2000.2 Z"/>
</g>

<g id="_______5_0_Layer0_7_MEMBER_6_FILL">
<path fill="#AA7957" stroke="none" d="
M 3015.95 2115.7
L 3011.7 2110.5 3008.1 2168.25 3009.35 2169.55
Q 3011 2171.05 3013.05 2172.25 3019.7 2176.1 3028.05 2175.25 3036.45 2174.45 3039.25 2171.25 3040.65 2169.65 3040.35 2168.2 3039.3 2151.2 3025.4 2129.15 3021.05 2122.3 3015.95 2115.7 Z"/>
</g>

<g id="_______5_0_Layer0_7_MEMBER_7_FILL">
<path fill="#33201A" stroke="none" d="
M 3016.3 2176.75
L 3014.8 2173.55
Q 3010.45 2172.2 3004.4 2172.85 2992.35 2174.05 2984 2183.85 2981.8 2184.85 2978.75 2185.6 2972.65 2187.2 2968.3 2186.3
L 2969.6 2190.05
Q 2971.6 2194.35 2975.3 2197.3 2987 2206.7 3010.65 2198.8 3020.3 2195.6 3018.5 2184.25 3017.95 2180.7 3016.3 2176.75 Z"/>
</g>

<g id="_______5_0_Layer0_7_MEMBER_8_FILL">
<path fill="#AA7957" stroke="none" d="
M 2886.25 2113.6
Q 2881.5 2110.9 2876.2 2111.1 2870.5 2111.35 2867.1 2114.9 2864.1 2118 2863.3 2123.2 2862.7 2127 2863.25 2132.7 2864.6 2145.65 2869.05 2155.05 2874.4 2166.45 2883.8 2171.2 2887.5 2173.05 2891.25 2173.5 2895.35 2173.95 2898.8 2172.6 2902.55 2171.1 2904.7 2167.65 2906.95 2164.05 2906.2 2160.35
L 2900.4 2128.4
Q 2896.35 2122.75 2894.1 2120.2 2890.25 2115.85 2886.25 2113.6 Z"/>
</g>

<g id="_______5_0_Layer0_7_MEMBER_9_FILL">
<path fill="#7F573C" stroke="none" d="
M 2886.35 2126.05
Q 2882.45 2124.3 2879.7 2125.45 2876.1 2127.05 2875.4 2133.15 2874.6 2140.8 2878.1 2148.05 2881.6 2155.35 2888.05 2159.45 2889.5 2160.4 2890.85 2160.65 2892.5 2161 2893.55 2160.05 2890.95 2155.85 2890.3 2153.45 2889.05 2149.35 2890.95 2146.3 2892.15 2144.45 2894.35 2141.35 2895.75 2138.6 2894.9 2135.4 2894.1 2132.45 2891.6 2129.85 2889.3 2127.45 2886.35 2126.05 Z"/>
</g>

<g id="_______5_0_Layer0_7_MEMBER_10_FILL">
<path fill="#33201A" stroke="none" d="
M 2994.65 2086.4
Q 2986.35 2083.2 2977.25 2083.3 2962.55 2083.5 2950.65 2092.95 2949.5 2093.8 2949.5 2095.3 2949.5 2096.95 2950.9 2097.85 2952.3 2098.7 2953.8 2098 2960.7 2094.65 2968.8 2093.95 2980.4 2092.85 2992.45 2097.5 2993.95 2098.05 2995.25 2097.2 2996.55 2096.3 2996.55 2094.7
L 2996.55 2089.2
Q 2996.55 2088.25 2996.05 2087.5 2995.5 2086.75 2994.65 2086.4 Z"/>
</g>

<g id="_______5_0_Layer0_7_MEMBER_11_FILL">
<path fill="#FFFFFF" stroke="none" d="
M 2965 2114
Q 2961.05 2119.4 2961.45 2123.7 2961.7 2126.35 2964.45 2129.4 2967.35 2132.6 2971.55 2134.6 2982.3 2139.75 2992.55 2133.85 2993.2 2132.25 2993.8 2128.9 2995 2122.1 2994.7 2113.15 2994.5 2108.1 2990.5 2105 2986.5 2101.95 2981.55 2103.05 2975.75 2104.4 2969 2109.4 2966.95 2111.25 2965 2114 Z"/>
</g>

<g id="_______5_0_Layer0_7_MEMBER_12_FILL">
<path fill="#5B514F" stroke="none" d="
M 2994.75 2119.75
Q 2994.75 2113.85 2992.45 2109.6 2990.2 2105.4 2987 2105.4 2983.8 2105.4 2981.55 2109.6 2979.25 2113.85 2979.25 2119.75 2979.25 2125.65 2981.55 2129.9 2983.8 2134.1 2987 2134.1 2990.2 2134.1 2992.45 2129.9 2994.75 2125.65 2994.75 2119.75 Z"/>
</g>

<g id="_______5_0_Layer0_7_MEMBER_13_FILL">
<path fill="#FFFFFF" stroke="none" d="
M 2987.35 2119.75
Q 2987.35 2118.05 2986.15 2116.9 2985 2115.7 2983.3 2115.7 2981.65 2115.7 2980.45 2116.9 2979.25 2118.05 2979.25 2119.75 2979.25 2121.4 2980.45 2122.6 2981.65 2123.8 2983.3 2123.8 2985 2123.8 2986.15 2122.6 2987.35 2121.4 2987.35 2119.75 Z"/>
</g>

<g id="_______5_0_Layer0_7_MEMBER_14_FILL">
<path fill="#B7835F" stroke="none" d="
M 2949.8 2146.8
Q 2942.75 2150.6 2942.75 2156 2942.75 2161.45 2949.8 2165.25 2956.85 2169.1 2966.85 2169.1 2976.85 2169.1 2983.95 2165.25 2991 2161.45 2991 2156 2991 2150.6 2983.95 2146.8 2976.85 2142.95 2966.85 2142.95 2956.9 2142.95 2949.8 2146.8 Z"/>
</g>

<g id="_______5_0_Layer0_8_FILL">
<path fill="#AA7957" stroke="none" d="
M 563.15 324.5
Q 562 321.75 561.85 319.75 566.16953125 327.976953125 567.25 328.45 568.383984375 328.9669921875 569.15 328.8 569.7080078125 328.6876953125 569.5 327.55 569.54453125 327.605078125 569.55 327.65 569.8255859375 328.017578125 569.5 327.45 569.396875 327.3046875 569.25 327.05 568.931640625 326.5431640625 568.35 325.15 568.6119140625 325.7095703125 568.8 325.9 569.0072265625 326.1123046875 569.15 326.25 571.1466796875 328.2208984375 571.7 327.7 572.65 326.9 572.4 326.05 570.155078125 322.807421875 568.1 317.6 568.5677734375 318.3525390625 571.15 321.65 574.4466796875 325.8435546875 575.15 324.2 575.84765625 322.5576171875 575.1 321.8
L 568.25 310.85
Q 568.4533203125 311.0056640625 568.65 311.15 572.75 314.1 574.85 312.3 575.3 312 571.25 308.05 566.95 303.8 563.15 301.6 558.25 298.8 556.45 300.9 554.656640625 303.044140625 555.95 309.7 555.589453125 314.2673828125 558.5 322.05 561.4033203125 329.844140625 564.55 329.85 564.951171875 329.8556640625 564.45 327.8 563.75 325.95 563.15 324.5 Z"/>
</g>

<g id="_______5_0_Layer0_9_FILL">
<path fill="#8E5D3A" stroke="none" d="
M 560.65 308.75
Q 561.279296875 311.700390625 559.75 315.55 563.14140625 313.5791015625 560.65 308.75 Z"/>
</g>

<g id="_______5_0_Layer0_10_FILL">
<path fill="#5F75A8" stroke="none" d="
M 504.5 308.45
L 473.25 319.45 472.05 415.2
Q 486.8 417.5 501.5 415.2
L 504.5 308.45 Z"/>
</g>

<g id="_______5_0_Layer0_11_FILL">
<path fill="#5F75A8" stroke="none" d="
M 506.25 369.5
Q 504.4470703125 371.455859375 506.25 373.7 505.4203125 391.8830078125 506.95 415.2 521.8 417.5 536.4 415.2 536.38046875 413.9537109375 536.25 388.9 536.1734375 363.85703125 530.65 318.75
L 500.95 318.35 506.25 369.5 Z"/>
</g>

<g id="_______5_0_Layer0_12_FILL">
<path fill="#E5D6B0" stroke="none" d="
M 468.45 221.35
L 478.05 268
Q 474.2791015625 283.2990234375 471.75 307.8 471.0048828125 315.3095703125 469.65 325.75 469.4978515625 327.2599609375 469.3 328.8 501.14609375 346.210546875 535.45 328.8 534.623828125 316.3568359375 533.15 307.8 528.9814453125 283.1072265625 525.05 267.75
L 534.55 221.35
Q 522.2755859375 216.944921875 510.15 215.75
L 501.6 230.2 492.2 215.75
Q 492.1744140625 215.780078125 492.1 215.75 480.2150390625 216.9875 468.45 221.35 Z"/>
</g>

<g id="_______5_0_Layer0_13_FILL">
<path fill="#E5D6B0" stroke="none" d="
M 539.1 289.05
L 555.1 280.3
Q 555.925390625 279.277734375 548.35 265 548.7466796875 261.9783203125 546.15 260.85 541.80703125 216.1591796875 530.8 220.85
L 523.1 248.25
Q 527.9994140625 280.563671875 539.1 289.05 Z"/>
</g>

<g id="_______5_0_Layer0_14_FILL">
<path fill="#E5D6B0" stroke="none" d="
M 471.05 290.85
Q 472.68828125 280.10703125 478.85 253.5
L 469.7 221.35
Q 458.819921875 214.666015625 451.55 286.05 458.0560546875 292.902734375 471.05 290.85 Z"/>
</g>

<g id="_______5_0_Layer0_15_FILL">
<path fill="#564843" stroke="none" d="
M 502.2 450.15
Q 501.385546875 448.961328125 500.55 447.9 487.3095703125 430.276171875 478.2 447.9 477.681640625 448.9609375 477.15 450.15
L 502.2 450.15
M 479 447.9
Q 487.4861328125 438.650390625 499.45 447.9
L 479 447.9 Z"/>
</g>

<g id="_______5_0_Layer0_16_FILL">
<path fill="#564843" stroke="none" d="
M 550.1 441.05
Q 545.6955078125 439.4947265625 541.15 438.6
L 537.2 447.65 516.4 447.65
Q 516.9751953125 448.9599609375 518.05 450.15
L 558.3 450.15
Q 558.5015625 448.9162109375 558.05 447.7 558.0642578125 447.68828125 558.05 447.65
L 547.6 447.65 550.1 441.05 Z"/>
</g>

<g id="_______5_0_Layer0_17_FILL">
<path fill="#324A80" stroke="none" d="
M 501.5 415.2
L 501.55 412.95
Q 486.8140625 415.2478515625 472.05 412.95
L 472.05 415.2
Q 486.8 417.5 501.5 415.2 Z"/>
</g>

<g id="_______5_0_Layer0_18_FILL">
<path fill="#324A80" stroke="none" d="
M 536.4 415.2
Q 536.360546875 413.9546875 536.3 412.7 521.758984375 414.9935546875 506.85 412.7
L 506.95 415.2
Q 521.8 417.5 536.4 415.2 Z"/>
</g>

<g id="_______5_0_Layer0_19_FILL">
<path fill="#DBCBA1" stroke="none" d="
M 532.5 330.25
Q 533.98515625 329.55546875 535.45 328.8 534.623828125 316.3568359375 533.15 307.8 532.83671875 305.8083984375 532.5 303.85
L 532.5 330.25
M 542.4 287.25
L 545.4 285.6 545.4 253.9
Q 544.1267578125 243.305859375 542.4 236.05
L 542.4 287.25
M 552.3 281.8
L 555.1 280.3
Q 555.664453125 279.6009765625 552.3 272.7
L 552.3 281.8
M 515.7 216.45
Q 514.1990234375 216.2193359375 512.7 216
L 512.7 336.55
Q 514.19765625 336.31640625 515.7 336
L 515.7 216.45
M 525.6 218.55
Q 524.098828125 218.1546875 522.6 217.8
L 522.6 334.1
Q 524.09765625 333.6478515625 525.6 333.1
L 525.6 269.95
Q 525.3244140625 268.822265625 525.05 267.75
L 525.6 265.05 525.6 218.55
M 495.9 221.45
L 492.9 216.8 492.9 336.85
Q 494.39765625 337.090234375 495.9 337.2
L 495.9 221.45
M 505.8 223.1
L 502.8 228.2 502.8 337.5
Q 504.29765625 337.4765625 505.8 337.35
L 505.8 223.1
M 535.5 221.3
Q 534.0755859375 220.2978515625 532.5 220.4
L 532.5 280.95
Q 533.9236328125 283.503515625 535.5 285.45
L 535.5 221.3
M 483 217.15
L 483 334.65
Q 484.4974609375 335.111328125 486 335.5
L 486 216.6
Q 484.498828125 216.8583984375 483 217.15
M 453.3 287.65
Q 454.684375 288.728125 456.3 289.5
L 456.3 249.9
Q 454.737109375 258.7962890625 453.3 270.4
L 453.3 287.65
M 476.1 276.95
Q 474.4541015625 285.50703125 473.1 296.15
L 473.1 330.75
Q 474.597265625 331.4623046875 476.1 332.1
L 476.1 276.95
M 476.1 218.85
Q 474.598828125 219.274609375 473.1 219.75
L 473.1 279.6
Q 474.3193359375 273.5765625 476.1 265.55
L 476.1 218.85
M 466.2 221.25
Q 464.6595703125 222.2130859375 463.2 224.9
L 463.2 291.2
Q 464.64296875 291.342578125 466.2 291.3
L 466.2 221.25 Z"/>
</g>

<g id="_______5_0_Layer0_20_FILL">
<path fill="#D7CBAB" fill-opacity="0.4980392156862745" stroke="none" d="
M 490.3 336.45
Q 501.6921875 338.559765625 513.35 336.45
L 490.3 336.45
M 552.55 273.25
Q 551.664453125 271.3724609375 550.45 269
L 527.6 269
Q 528.288671875 271.233203125 529 273.25
L 552.55 273.25
M 531.3 278.65
Q 532.4419921875 280.9767578125 533.65 282.9
L 550.35 282.9 555.1 280.3
Q 555.334375 280.009765625 554.9 278.65
L 531.3 278.65
M 538.1 288.25
Q 538.6076171875 288.6736328125 539.1 289.05
L 540.55 288.25 538.1 288.25
M 538.6 225.1
Q 536.8255859375 221.852734375 534.75 220.85
L 507.1 220.85 504.6 225.1 538.6 225.1
M 471.8 307.55
Q 471.787890625 307.6748046875 471.75 307.8 471.5796875 309.7048828125 471.35 311.8
L 533.8 311.8
Q 533.4974609375 309.70390625 533.15 307.8 533.1537109375 307.6748046875 533.1 307.55
L 471.8 307.55
M 470.7 317.15
Q 470.4947265625 319.2009765625 470.2 321.4
L 534.85 321.4
Q 534.678125 319.200390625 534.45 317.15
L 470.7 317.15
M 472.85 297.9
Q 472.621484375 299.9857421875 472.35 302.15
L 532.2 302.15
Q 531.809375 299.9857421875 531.4 297.9
L 472.85 297.9
M 469.55 326.8
Q 469.430078125 327.7880859375 469.3 328.8 471.51171875 330.0091796875 473.7 331.05
L 530.7 331.05
Q 533.090625 330.0091796875 535.45 328.8 535.4056640625 327.787109375 535.3 326.8
L 469.55 326.8
M 477.8 269
Q 477.31171875 271.0458984375 476.85 273.25
L 526.4 273.25
Q 525.880078125 271.04609375 525.35 269
L 477.8 269
M 474.4 273.25
Q 474.8595703125 271.208984375 475.35 269
L 453.45 269
Q 453.21328125 271.080078125 452.95 273.25
L 474.4 273.25
M 475.75 278.65
Q 475.3943359375 280.716015625 475 282.9
L 528.5 282.9
Q 528.07109375 280.716015625 527.6 278.65
L 475.75 278.65
M 474.15 288.25
Q 473.8689453125 290.327734375 473.55 292.5
L 530.4 292.5
Q 530.0123046875 290.327734375 529.6 288.25
L 474.15 288.25
M 471.05 290.85
Q 471.233203125 289.64921875 471.45 288.25
L 454.1 288.25
Q 460.422265625 292.52890625 471.05 290.85
M 452.3 278.65
Q 452.1 280.7373046875 451.85 282.9
L 472.45 282.9
Q 472.8361328125 280.905859375 473.3 278.65
L 452.3 278.65
M 456.3 249.75
Q 455.955078125 251.8025390625 455.6 254
L 545.4 254
Q 545.153515625 251.8033203125 544.85 249.75
L 456.3 249.75
M 476.5 263.65
Q 476.68515625 262.9326171875 476.85 262.2
L 477.15 263.65 525.9 263.65 526 263.15
Q 526.0619140625 263.401171875 526.1 263.65
L 548.35 263.65
Q 548.119140625 261.7056640625 546.15 260.85 546.07890625 260.118359375 546 259.4
L 454.75 259.4
Q 454.4728515625 261.4697265625 454.15 263.65
L 476.5 263.65
M 469.8 220.85
Q 469.51328125 220.9615234375 469.2 221.05 468.866015625 220.925390625 468.5 220.85
L 467.2 220.85
Q 465.0810546875 221.34765625 463.1 225.1
L 498.25 225.1 495.5 220.85 469.8 220.85
M 460.85 230.5
Q 460.20859375 232.4330078125 459.55 234.75
L 542.05 234.75
Q 541.4890625 232.4388671875 540.85 230.5
L 460.85 230.5
M 458.25 240.1
Q 457.7955078125 242.11953125 457.35 244.35
L 544.05 244.35
Q 543.675 242.1212890625 543.25 240.1
L 458.25 240.1 Z"/>
</g>

<g id="_______5_0_Layer0_21_FILL">
<path fill="#FFF3D9" stroke="none" d="
M 452.9 279.5
Q 452.5 279.4 452.2 279.4 450.8 279.4 450.5 280.75 449.7587890625 282.2849609375 450.85 284.4 449.5404296875 285.41875 449.75 287.7 449.9 289.85 451.9 290.25
L 469.85 293.95
Q 470.1 294 470.45 294 471.65 294 472.35 292.4 473.23359375 290.259375 472.1 288.8
L 472.15 288.8
Q 473.704296875 287.1337890625 473.65 285.6 473.6484375 284.1052734375 471.95 283.7 463.6 281.15 452.9 279.5 Z"/>
</g>

<g id="_______5_0_Layer0_22_FILL">
<path fill="#FFF3D9" stroke="none" d="
M 452.9 279.5
Q 452.5 279.4 452.2 279.4 450.8 279.4 450.5 280.75 449.7587890625 282.2849609375 450.85 284.4 449.5404296875 285.41875 449.75 287.7 449.9 289.85 451.9 290.25
L 469.85 293.95
Q 470.1 294 470.45 294 471.65 294 472.35 292.4 473.23359375 290.259375 472.1 288.8
L 472.15 288.8
Q 473.704296875 287.1337890625 473.65 285.6 473.6484375 284.1052734375 471.95 283.7 463.6 281.15 452.9 279.5 Z"/>
</g>

<g id="_______5_0_Layer0_23_FILL">
<path fill="#FFF3D9" stroke="none" d="
M 501.1 227.8
L 500.05 227.8 501.9 337.65 504.8 337.65 502.95 227.8 502 227.8 501.6 228.55 501.1 227.8 Z"/>
</g>

<g id="_______5_0_Layer0_24_FILL">
<path fill="#FFF3D9" stroke="none" d="
M 490.7 220.05
L 501.55 229.3 512.4 220.05 520.25 222.4 511.8 212.05 501.5 228 491.3 212.05 482.85 222.4 490.7 220.05 Z"/>
</g>
</defs>

<g transform="matrix( 1.0617828369140625, 0, 0, 1.0617828369140625, 13.25,3.25) ">
<g transform="matrix( 1, 0, 0, 1, -449.7,-154.9) ">
<use xlink:href="#_______5_0_Layer0_0_FILL"/>
</g>

<g transform="matrix( 0.2636566162109375, 0, 0, 0.2636566162109375, -946.4,-308.75) ">
<use xlink:href="#_______5_0_Layer0_1_FILL"/>
</g>

<g transform="matrix( 0.2636566162109375, 0, 0, 0.2636566162109375, -946.4,-308.75) ">
<use xlink:href="#_______5_0_Layer0_2_FILL"/>
</g>

<g transform="matrix( 0.2636566162109375, 0, 0, 0.2636566162109375, -946.4,-308.75) ">
<use xlink:href="#_______5_0_Layer0_3_FILL"/>
</g>

<g transform="matrix( 0.2636566162109375, 0, 0, 0.2636566162109375, -946.4,-308.75) ">
<use xlink:href="#_______5_0_Layer0_4_FILL"/>
</g>

<g transform="matrix( -0.216766357421875, 0.1500701904296875, 0.1500701904296875, 0.216766357421875, 701.45,-822.2) ">
<use xlink:href="#_______5_0_Layer0_5_FILL"/>
</g>

<g transform="matrix( 1, 0, 0, 1, -449.7,-154.9) ">
<use xlink:href="#_______5_0_Layer0_6_FILL"/>
</g>

<g transform="matrix( 0.206146240234375, 0, 0, 0.206146240234375, -550.15,-408.7) ">
<use xlink:href="#_______5_0_Layer0_7_MEMBER_0_FILL"/>
</g>

<g transform="matrix( 0.206146240234375, 0, 0, 0.206146240234375, -550.15,-408.7) ">
<use xlink:href="#_______5_0_Layer0_7_MEMBER_1_FILL"/>
</g>

<g transform="matrix( 1, 0, 0, 1, -449.7,-154.9) ">
<use xlink:href="#_______5_0_Layer0_7_MEMBER_2_FILL"/>
</g>

<g transform="matrix( 0.206146240234375, 0, 0, 0.206146240234375, -550.15,-408.7) ">
<use xlink:href="#_______5_0_Layer0_7_MEMBER_3_FILL"/>
</g>

<g transform="matrix( 0.206146240234375, 0, 0, 0.206146240234375, -550.15,-408.7) ">
<use xlink:href="#_______5_0_Layer0_7_MEMBER_4_FILL"/>
</g>

<g transform="matrix( 0.206146240234375, 0, 0, 0.206146240234375, -550.15,-408.7) ">
<use xlink:href="#_______5_0_Layer0_7_MEMBER_5_FILL"/>
</g>

<g transform="matrix( 0.206146240234375, 0, 0, 0.206146240234375, -550.15,-408.7) ">
<use xlink:href="#_______5_0_Layer0_7_MEMBER_6_FILL"/>
</g>

<g transform="matrix( 0.206146240234375, 0, 0, 0.206146240234375, -550.15,-408.7) ">
<use xlink:href="#_______5_0_Layer0_7_MEMBER_7_FILL"/>
</g>

<g transform="matrix( 0.206146240234375, 0, 0, 0.206146240234375, -550.15,-408.7) ">
<use xlink:href="#_______5_0_Layer0_7_MEMBER_8_FILL"/>
</g>

<g transform="matrix( 0.206146240234375, 0, 0, 0.206146240234375, -550.15,-408.7) ">
<use xlink:href="#_______5_0_Layer0_7_MEMBER_9_FILL"/>
</g>

<g transform="matrix( 0.206146240234375, 0, 0, 0.206146240234375, -550.15,-408.7) ">
<use xlink:href="#_______5_0_Layer0_7_MEMBER_10_FILL"/>
</g>

<g transform="matrix( 0.206146240234375, 0, 0, 0.206146240234375, -550.15,-408.7) ">
<use xlink:href="#_______5_0_Layer0_7_MEMBER_11_FILL"/>
</g>

<g transform="matrix( 0.206146240234375, 0, 0, 0.206146240234375, -550.15,-408.7) ">
<use xlink:href="#_______5_0_Layer0_7_MEMBER_12_FILL"/>
</g>

<g transform="matrix( 0.206146240234375, 0, 0, 0.206146240234375, -550.15,-408.7) ">
<use xlink:href="#_______5_0_Layer0_7_MEMBER_13_FILL"/>
</g>

<g transform="matrix( 0.206146240234375, 0, 0, 0.206146240234375, -550.15,-408.7) ">
<use xlink:href="#_______5_0_Layer0_7_MEMBER_14_FILL"/>
</g>

<g transform="matrix( 1, 0, 0, 1, -449.7,-154.9) ">
<use xlink:href="#_______5_0_Layer0_8_FILL"/>
</g>

<g transform="matrix( 1, 0, 0, 1, -449.7,-154.9) ">
<use xlink:href="#_______5_0_Layer0_9_FILL"/>
</g>

<g transform="matrix( 1, 0, 0, 1, -449.7,-154.9) ">
<use xlink:href="#_______5_0_Layer0_10_FILL"/>
</g>

<g transform="matrix( 1, 0, 0, 1, -449.7,-154.9) ">
<use xlink:href="#_______5_0_Layer0_11_FILL"/>
</g>

<g transform="matrix( 1, 0, 0, 1, -449.7,-154.9) ">
<use xlink:href="#_______5_0_Layer0_12_FILL"/>
</g>

<g transform="matrix( 1, 0, 0, 1, -449.7,-154.9) ">
<use xlink:href="#_______5_0_Layer0_13_FILL"/>
</g>

<g transform="matrix( 1, 0, 0, 1, -449.7,-154.9) ">
<use xlink:href="#_______5_0_Layer0_14_FILL"/>
</g>

<g transform="matrix( 1, 0, 0, 1, -449.7,-154.9) ">
<use xlink:href="#_______5_0_Layer0_15_FILL"/>
</g>

<g transform="matrix( 1, 0, 0, 1, -449.7,-154.9) ">
<use xlink:href="#_______5_0_Layer0_16_FILL"/>
</g>

<g transform="matrix( 1, 0, 0, 1, -449.7,-154.9) ">
<use xlink:href="#_______5_0_Layer0_17_FILL"/>
</g>

<g transform="matrix( 1, 0, 0, 1, -449.7,-154.9) ">
<use xlink:href="#_______5_0_Layer0_18_FILL"/>
</g>

<g transform="matrix( 1, 0, 0, 1, -449.7,-154.9) ">
<use xlink:href="#_______5_0_Layer0_19_FILL"/>
</g>

<g transform="matrix( 1, 0, 0, 1, -449.7,-154.9) ">
<use xlink:href="#_______5_0_Layer0_20_FILL"/>
</g>

<g transform="matrix( 1, 0, 0, 1, -449.7,-154.9) ">
<use xlink:href="#_______5_0_Layer0_21_FILL"/>
</g>

<g transform="matrix( 0.7071075439453125, -0.70709228515625, 0.70709228515625, 0.7071075439453125, -433.45,250.2) ">
<use xlink:href="#_______5_0_Layer0_22_FILL"/>
</g>

<g transform="matrix( 1, 0, 0, 1, -449.7,-154.9) ">
<use xlink:href="#_______5_0_Layer0_23_FILL"/>
</g>

<g transform="matrix( 1, 0, 0, 1, -449.7,-154.9) ">
<use xlink:href="#_______5_0_Layer0_24_FILL"/>
</g>
</g>
</svg>
