<svg xmlns="http://www.w3.org/2000/svg" width="74" height="56" viewBox="0 0 74 56" xmlns:xlink="http://www.w3.org/1999/xlink">
  <title>
    icon-laboratory
  </title>
  <use fill="#6BCDE4" xlink:href="#a" transform="translate(6.79 18.25)"/>
  <use fill="#C716FF" xlink:href="#b" transform="translate(13.52 9.83)"/>
  <use fill="#C716FF" xlink:href="#b" transform="translate(9.06 1.19)"/>
  <use fill="#C716FF" xlink:href="#c" transform="translate(17.75 4.21)"/>
  <use fill="#851CA7" xlink:href="#d" transform="translate(10.81 38.5)"/>
  <use fill="#9FE9FF" xlink:href="#e" transform="translate(0 32.19)"/>
  <use fill="#2FB6E4" xlink:href="#f" transform="translate(1.8 44.86)"/>
  <use fill="#FFF" xlink:href="#g" transform="translate(8.33 43.27)"/>
  <use fill="#E6534D" xlink:href="#h" transform="translate(31.13)"/>
  <use fill="#D84B4A" xlink:href="#i" transform="translate(20.53)"/>
  <use fill="#D84B4A" xlink:href="#j" transform="translate(44.28)"/>
  <use fill="#CD4643" xlink:href="#k" transform="translate(31.13 43.75)"/>
  <use fill="#E6534D" xlink:href="#l" transform="translate(60.85 27.88)"/>
  <use fill="#CD4643" xlink:href="#m" transform="translate(20.53 37.57)"/>
  <use fill="#BC3F3D" xlink:href="#n" transform="translate(25.77 47.75)"/>
  <use fill="#BC3F3D" xlink:href="#o" transform="translate(49.88 43.75)"/>
  <use fill="#CD4643" xlink:href="#p" transform="translate(64.87 27.88)"/>
  <use fill="#C94342" xlink:href="#q" transform="translate(31.13 23.27)"/>
  <use fill="#E6534D" xlink:href="#r" transform="translate(20.53 23.27)"/>
  <use fill="#CD4643" xlink:href="#s" transform="translate(57.31 27.88)"/>
  <use xlink:href="#t" transform="translate(36.24)" opacity=".29"/>
  <use xlink:href="#u" transform="translate(20.53 23.27)" opacity=".29"/>
  <use fill="#E6534D" xlink:href="#v" transform="translate(31.13 23.27)"/>
  <use fill="#E6534D" xlink:href="#w" transform="translate(20.53)"/>
  <use fill="#E6534D" xlink:href="#x" transform="translate(31.13 27.88)"/>
  <use fill="#D84B4A" xlink:href="#y" transform="translate(31.13 43.75)"/>
  <use fill="#E6534D" xlink:href="#z" transform="translate(44.28)"/>
  <use fill="#CD4643" xlink:href="#A" transform="translate(49.88 43.75)"/>
  <use fill="#CD4643" xlink:href="#B" transform="translate(25.77 47.75)"/>
  <use fill="#D84B4A" xlink:href="#C" transform="translate(20.53 37.57)"/>
  <use fill="#D84B4A" xlink:href="#D" transform="translate(64.87 27.88)"/>
  <use fill="#D84B4A" xlink:href="#E" transform="translate(57.31 27.88)"/>
  <use fill="#FFF" xlink:href="#F" transform="translate(52 23.19)"/>
  <use fill="#FFF" xlink:href="#G" transform="translate(26 41.19)"/>
  <use fill="#FFF" xlink:href="#H" transform="translate(32 19.19)"/>
  <defs>
    <path id="a" d="M 7.06425 36.1191L 19.6094 36.1191C 23.3851 33.695 26.1865 29.574 26.1865 24.9682C 26.0647 19.7564 23.0197 15.0294 18.2696 12.8477L 18.2696 4.48459C 18.8786 4.36338 20.5838 3.75736 20.5838 2.3029C 20.5838 0.727231 18.8786 -1.12298e-08 17.2952 -1.12298e-08L 8.89122 -1.12298e-08C 7.30785 -1.12298e-08 5.48089 0.606025 5.48089 2.3029C 5.48089 3.63615 6.57707 4.12097 7.18605 4.48459L 7.18605 13.2113C 2.92314 15.1506 -8.59957e-08 19.8776 -8.59957e-08 25.0894C 0.243586 29.6952 3.28852 33.695 7.06425 36.1191Z"/>
    <path id="b" d="M 4.22994 2.10617C 4.22994 3.26938 3.28304 4.21234 2.11497 4.21234C 0.946905 4.21234 0 3.26938 0 2.10617C 0 0.942965 0.946905 0 2.11497 0C 3.28304 0 4.22994 0.942965 4.22994 2.10617Z"/>
    <path id="c" d="M 2.81996 1.40411C 2.81996 2.17958 2.18869 2.80823 1.40998 2.80823C 0.63127 2.80823 0 2.17958 0 1.40411C 0 0.628643 0.63127 0 1.40998 0C 2.18869 0 2.81996 0.628643 2.81996 1.40411Z"/>
    <path id="d" d="M 0.974384 0C 0.365396 1.21205 2.72379e-08 2.66651 2.72379e-08 4.12097C 2.72379e-08 9.33279 4.14112 13.575 9.3784 13.575C 14.6157 13.575 18.7568 9.33279 18.7568 4.12097C 18.7568 2.66651 18.3914 1.33326 17.7824 0L 0.974384 0Z"/>
    <path id="e" d="M 10.5915 8.22222L 10.5915 2.88889C 11.7183 2.88889 12.3944 2.44445 12.3944 1.44445C 12.3944 0.44445 11.6056 0 10.5915 0L 5.07042 0C 3.94366 0 3.26761 0.444446 3.26761 1.44444C 3.26761 2.44445 3.94366 2.88889 5.07042 2.88889L 5.07042 8.33333C 1.12676 9.55555 0 12.5556 0 15.8889C 0 18.7778 1.46479 21.4444 3.94366 23L 11.9437 23C 14.3099 21.3333 16 18.7778 16 15.8889C 15.8873 12.4444 13.9718 9.33333 10.5915 8.22222Z"/>
    <path id="f" d="M 0.676057 -1.2424e-08C 0.225353 0.777779 2.08792e-08 1.66667 2.08792e-08 2.55555C 2.08792e-08 5.88889 2.70423 8.55556 5.97183 8.55556C 9.23944 8.55556 11.9437 5.88889 11.9437 2.55555C 11.9437 1.66667 11.7183 0.777778 11.2676 -1.2424e-08L 0.676057 -1.2424e-08Z"/>
    <path id="g" d="M 2.31277 4.5836C 3.59008 4.5836 4.62555 3.55753 4.62555 2.2918C 4.62555 1.02607 3.59008 0 2.31277 0C 1.03546 0 0 1.02607 0 2.2918C 0 3.55753 1.03546 4.5836 2.31277 4.5836Z"/>
    <path id="h" d="M 13.1541 0L 4.51388e-08 47.7548L 29.7186 43.755L 13.1541 0Z"/>
    <path id="i" d="M -2.25694e-08 37.5736L 10.5964 47.7548L 23.7505 0L -2.25694e-08 37.5736Z"/>
    <path id="j" d="M 24.9685 27.8772L 16.5645 43.755L -3.15199e-08 0L 24.9685 27.8772Z"/>
    <path id="k" d="M 4.51388e-08 3.99976L 18.7568 10.7872L 29.7186 -1.35527e-08L 4.51388e-08 3.99976Z"/>
    <path id="l" d="M 8.40403 0L 4.14111 19.8776L -4.51388e-08 15.8779L 8.40403 0Z"/>
    <path id="m" d="M -2.25694e-08 0L 10.5964 10.1812L 5.23729 16.9687L -2.25694e-08 0Z"/>
    <path id="n" d="M 2.25694e-08 6.78748L 24.1159 6.78748L 5.35909 3.13665e-08L 2.25694e-08 6.78748Z"/>
    <path id="o" d="M 14.9811 10.7872L 15.1029 3.99976L 10.9618 -1.35527e-08L -4.51388e-08 10.7872L 14.9811 10.7872Z"/>
    <path id="p" d="M 4.38471 0L 9.13481 12.4841L 0 26.6651L 0.121796 19.8776L 4.38471 0Z"/>
    <path id="q" d="M 29.7186 20.4837L 0 24.4834L 5.1155 0L 26.1865 4.60579L 29.7186 20.4837Z"/>
    <path id="r" d="M -2.25694e-08 14.3022L 15.7119 -4.49192e-08L 10.5964 24.4834L -2.25694e-08 14.3022Z"/>
    <path id="s" d="M 11.9362 0L 4.51388e-08 0L 3.53213 15.8779L 11.9362 0Z"/>
    <path id="t" d="M 8.03863 0L 3.89752 21.3321L 21.071 27.8772L 0 23.2714L 8.03863 0Z"/>
    <path id="u" d="M -2.25694e-08 14.3022L 12.6669 5.45423L 10.5964 24.4834L 15.7119 -4.49192e-08L -2.25694e-08 14.3022Z"/>
    <path id="v" d="M 4.51388e-08 24.4834L 6.82066 3.27254L 26.1865 4.60579L 5.1155 -4.49192e-08L 4.51388e-08 24.4834Z"/>
    <path id="w" d="M 23.7505 0L 14.2503 21.3321L -2.25694e-08 37.5736L 15.7119 23.2714L 23.7505 0Z"/>
    <path id="x" d="M 26.1865 0L 26.1865 13.0901L 4.51388e-08 19.8776L 29.7186 15.8779L 26.1865 0Z"/>
    <path id="y" d="M 18.7568 10.7872L 24.6031 3.99976L 4.51388e-08 3.99976L 29.7186 -1.35527e-08L 18.7568 10.7872Z"/>
    <path id="z" d="M -3.15199e-08 0L 20.7056 24.6046L 13.0323 27.8772L 24.9685 27.8772L -3.15199e-08 0Z"/>
    <path id="A" d="M -4.51388e-08 10.7872L 10.9618 3.39374L 15.1029 3.99976L 10.9618 -1.35527e-08L -4.51388e-08 10.7872Z"/>
    <path id="B" d="M 2.25694e-08 6.78748L 6.45527 2.5453L 24.1159 6.78748L 5.35909 3.13665e-08L 2.25694e-08 6.78748Z"/>
    <path id="C" d="M -2.25694e-08 0L 8.28223 10.1812L 5.23729 16.9687L 10.5964 10.1812L -2.25694e-08 0Z"/>
    <path id="D" d="M 0 26.6651L 7.42965 12.3629L 4.38471 0L 9.13481 12.4841L 0 26.6651Z"/>
    <path id="E" d="M 11.9362 0L 2.92314 2.66651L 3.53213 15.8779L 4.51388e-08 0L 11.9362 0Z"/>
    <path id="F" d="M 5.77728 4.22172L 4.72987 0L 3.68247 4.22172L 0 5.25943L 3.68247 6.29714L 4.72987 10L 5.77728 6.29714L 10 5.25943L 5.77728 4.22172Z"/>
    <path id="G" d="M 6.04409 4.9552L 5.31091 0L 4.57773 4.9552L 0 5.6816L 4.57773 6.408L 5.31091 11L 6.04409 6.408L 11 5.6816L 6.04409 4.9552Z"/>
    <path id="H" d="M 4.3957 3.60378L 3.86248 0L 3.32926 3.60378L 0 4.13207L 3.32926 4.66036L 3.86248 8L 4.3957 4.66036L 8 4.13207L 4.3957 3.60378Z"/>
  </defs>
</svg>
